# xmcd
#
# Track frame offsets:
#	150
#	19537
#	35915
#	53790
#	70932
#	94185
#	116472
#	133465
#	151630
#	168357
#	187045
#	205000
#	236632
#
# Disc length: 3165 seconds
#
# Revision: 11
# Processed by: cddbd v1.5.2PL0 Copyright (c) Steve Scherf et al.
# Submitted via: EasyCDDAExtractor 15.3.0.1
#
DISCID=b00c5b0d
DTITLE=Toni Braxton - More Than A Woman
DYEAR=2002
DGENRE=R&B/Hip-Hop
TTITLE0=Let Me Show You The Way (Out)
TTITLE1=Give It Back (Featuring The Big Tymers)
TTITLE2=A Better Man
TTITLE3=Hit The Freeway (Featuring Loon)
TTITLE4=Lies, Lies, Lies
TTITLE5=Rock Me, Roll Me
TTITLE6=Selfish
TTITLE7=Do You Remember When
TTITLE8=Me and My Boyfriend
TTITLE9=Tell Me
TTITLE10=And I Love You
TTITLE11=Always
TTITLE12=Data Track
EXTD=YEAR: 2002
EXTT0=
EXTT1=
EXTT2=
EXTT3=
EXTT4=
EXTT5=
EXTT6=
EXTT7=
EXTT8=
EXTT9=
EXTT10=
EXTT11=
EXTT12=
PLAYORDER=
